<svg width="24" height="24" viewBox="0 0 24 24" fill="none" xmlns="http://www.w3.org/2000/svg">
<path d="M4.5 12L6 10.5H18L19.5 12V19.5L18 21H6L4.5 19.5V12ZM6 12V19.5H18V12H6Z" fill="black"/>
<path d="M16.5 10.5V7.5C16.5 6.30653 16.0259 5.16193 15.182 4.31802C14.3381 3.47411 13.1935 3 12 3C10.8065 3 9.66193 3.47411 8.81802 4.31802C7.97411 5.16193 7.5 6.30653 7.5 7.5V10.5H9V7.5C9 6.70435 9.31607 5.94129 9.87868 5.37868C10.4413 4.81607 11.2044 4.5 12 4.5C12.7956 4.5 13.5587 4.81607 14.1213 5.37868C14.6839 5.94129 15 6.70435 15 7.5V10.5H16.5Z" fill="black"/>
</svg>
