<svg width="88" height="88" viewBox="0 0 88 88" fill="none" xmlns="http://www.w3.org/2000/svg">
<path d="M80.7683 7.24498C78.4743 4.9417 75.7468 3.11559 72.743 1.87209C69.7393 0.628592 66.519 -0.00766349 63.2679 6.96538e-05H24.7465C21.494 -0.000896022 18.2733 0.639404 15.2685 1.88432C12.2638 3.12923 9.5341 4.95432 7.2356 7.25516C4.93709 9.556 3.11492 12.2874 1.87336 15.2931C0.631796 18.2988 -0.00478445 21.5198 2.70728e-05 24.7718V88H63.2533C66.5033 88.001 69.7217 87.3616 72.7245 86.1186C75.7273 84.8755 78.4557 83.053 80.7539 80.7553C83.052 78.4575 84.8747 75.7295 86.118 72.7272C87.3613 69.7249 88.0007 66.5071 87.9998 63.2576V24.7718C88.0133 21.5174 87.3811 18.2927 86.1399 15.2842C84.8986 12.2757 83.0729 9.54326 80.7683 7.24498ZM76.428 76.4447C74.7018 78.1806 72.6487 79.5573 70.3875 80.4956C68.1262 81.4339 65.7015 81.915 63.2533 81.9114H6.09696V60.828C6.11834 59.9496 6.25869 59.0781 6.51416 58.2374C7.41858 55.7105 9.1523 53.5644 11.4327 52.1487C14.1358 50.5099 17.2377 49.6466 20.3989 49.6533C21.2058 49.6513 21.9792 49.33 22.5498 48.7595C23.1204 48.1889 23.4417 47.4157 23.4437 46.6089V35.6318C23.451 33.7878 24.1847 32.021 25.4858 30.7141C26.4586 29.7436 27.6973 29.083 29.0453 28.8159C30.3934 28.5488 31.7903 28.6871 33.0598 29.2133C34.3293 29.7395 35.4144 30.63 36.178 31.7724C36.9417 32.9148 37.3496 34.2578 37.3503 35.6318V43.9891C37.3503 44.7965 37.6711 45.5708 38.2421 46.1417C38.8131 46.7126 39.5876 47.0334 40.3952 47.0334C41.2027 47.0334 41.9771 46.7126 42.5482 46.1417C43.1192 45.5708 43.44 44.7965 43.44 43.9891V35.6318C43.4475 33.5066 42.9295 31.4126 41.9322 29.5358C42.4645 29.2415 43.0329 29.0176 43.623 28.8699C44.6451 28.6272 45.7089 28.6187 46.7349 28.845C47.7608 29.0714 48.7222 29.5268 49.5472 30.1771C50.3723 30.8275 51.0396 31.6559 51.4991 32.6005C51.9587 33.5451 52.1987 34.5814 52.2012 35.6318V43.9891C52.2012 44.7965 52.5219 45.5708 53.0929 46.1417C53.664 46.7126 54.4384 47.0334 55.246 47.0334C56.0535 47.0334 56.828 46.7126 57.399 46.1417C57.97 45.5708 58.2908 44.7965 58.2908 43.9891V35.6245C58.2914 33.503 57.7685 31.4142 56.7684 29.5432C57.305 29.2452 57.8783 29.0188 58.4738 28.8699C59.4957 28.6255 60.5597 28.6159 61.5859 28.8417C62.6121 29.0675 63.5737 29.5229 64.3986 30.1736C65.2234 30.8244 65.8901 31.6536 66.3484 32.599C66.8067 33.5443 67.0447 34.5812 67.0447 35.6318V43.9891C67.0447 44.7965 67.3655 45.5708 67.9365 46.1417C68.5075 46.7126 69.282 47.0334 70.0895 47.0334C70.8971 47.0334 71.6715 46.7126 72.2425 46.1417C72.8135 45.5708 73.1343 44.7965 73.1343 43.9891V35.6318C73.1339 33.5067 72.6138 31.4139 71.6192 29.5358C72.155 29.2433 72.7255 29.0196 73.3173 28.8699C74.3395 28.6272 75.4033 28.6187 76.4292 28.845C77.4551 29.0714 78.4165 29.5268 79.2416 30.1771C80.0666 30.8275 80.7339 31.6559 81.1934 32.6005C81.653 33.5451 81.893 34.5814 81.8955 35.6318V46.6089V63.2722C81.9012 65.7203 81.4209 68.1453 80.4823 70.4064C79.5438 72.6676 78.1657 74.72 76.428 76.4447Z" fill="#FF7A53"/>
</svg>
